# xmcd
#
# Track frame offsets:
#	150
#	16660
#	38958
#	60603
#	86081
#	121694
#	144900
#	163639
#	181286
#	205502
#	225636
#	244088
#	276907
#	296352
#
# Disc length: 4193 seconds
#
# Revision: 0
# Processed by: cddbd v1.5.2PL0 Copyright (c) Steve Scherf et al.
# Submitted via: EasyCDDAExtractor 2010.6.0.0
#
DISCID=b4105f0e
DTITLE=Chevy Rockets - Etiqueta Negra
DYEAR=2001
DGENRE=Blues
TTITLE0=La Gira
TTITLE1=Vieja Estación
TTITLE2=Mariel
TTITLE3=Buena Estrella
TTITLE4=Palabras Filosas
TTITLE5=Cosas de Negros
TTITLE6=Para Mi
TTITLE7=Little People
TTITLE8=Entre La Lluvia Y El Sol
TTITLE9=El Mismo Lugar
TTITLE10=El Ritual
TTITLE11=Nostalgias
TTITLE12=Paren De Querer Tener
TTITLE13=Entre Pinos
EXTD=
EXTT0=
EXTT1=
EXTT2=
EXTT3=
EXTT4=
EXTT5=
EXTT6=
EXTT7=
EXTT8=
EXTT9=
EXTT10=
EXTT11=
EXTT12=
EXTT13=
PLAYORDER=
